<?xml version="1.0" encoding="UTF-8"?>
<svg width="180" height="180" viewBox="0 0 180 180" fill="none" xmlns="http://www.w3.org/2000/svg">
    <!-- Apvalus fonas -->
    <rect width="180" height="180" rx="45" fill="#121212"/>
    
    <!-- Šešiakampis su gradientu -->
    <path d="M90 30L150 65V135L90 170L30 135V65L90 30Z" fill="url(#hexGradient)"/>
    
    <!-- Vidinis šešiakampis su šviesesniu gradientu -->
    <path d="M90 50L130 75V125L90 150L50 125V75L90 50Z" fill="url(#innerHexGradient)" opacity="0.8"/>
    
    <!-- R raidė centre -->
    <path d="M80 75H95C98.3137 75 101 77.6863 101 81V89C101 92.3137 98.3137 95 95 95H85V110H80V75ZM85 90H95V80H85V90Z" fill="white"/>
    
    <!-- Gradientų apibrėžimai -->
    <defs>
        <linearGradient id="hexGradient" x1="30" y1="65" x2="150" y2="135" gradientUnits="userSpaceOnUse">
            <stop offset="0" stop-color="#A78BFA"/>
            <stop offset="1" stop-color="#7C3AED"/>
        </linearGradient>
        <linearGradient id="innerHexGradient" x1="50" y1="75" x2="130" y2="125" gradientUnits="userSpaceOnUse">
            <stop offset="0" stop-color="#C4B5FD"/>
            <stop offset="1" stop-color="#8B5CF6"/>
        </linearGradient>
    </defs>
</svg>
