<?xml version="1.0" encoding="UTF-8" standalone="no"?>
<svg width="512" height="512" viewBox="0 0 512 512" fill="none" xmlns="http://www.w3.org/2000/svg">
  <rect width="512" height="512" rx="128" fill="#050510"/>
  
  <!-- Holograminis tinklelis -->
  <g opacity="0.3">
    <path d="M56 256 H456" stroke="#00FFFF" stroke-width="1" />
    <path d="M256 56 V456" stroke="#00FFFF" stroke-width="1" />
    
    <!-- Koncentriniai apskritimai -->
    <circle cx="256" cy="256" r="200" stroke="#00FFFF" stroke-width="1" fill="none" />
    <circle cx="256" cy="256" r="150" stroke="#00FFFF" stroke-width="1" fill="none" />
    <circle cx="256" cy="256" r="100" stroke="#00FFFF" stroke-width="1" fill="none" />
    <circle cx="256" cy="256" r="50" stroke="#00FFFF" stroke-width="1" fill="none" />
  </g>
  
  <!-- Stulpeliai -->
  <rect x="96" y="256" width="40" height="120" rx="4" fill="#94D2FF" />
  <rect x="96" y="256" width="40" height="120" rx="4" fill="#5CEFFF" opacity="0.5" />
  
  <rect x="176" y="216" width="40" height="160" rx="4" fill="#94D2FF" />
  <rect x="176" y="216" width="40" height="160" rx="4" fill="#5CEFFF" opacity="0.5" />
  
  <rect x="256" y="296" width="40" height="80" rx="4" fill="#94D2FF" />
  <rect x="256" y="296" width="40" height="80" rx="4" fill="#5CEFFF" opacity="0.5" />
  
  <rect x="336" y="176" width="40" height="200" rx="4" fill="#94D2FF" />
  <rect x="336" y="176" width="40" height="200" rx="4" fill="#5CEFFF" opacity="0.5" />
  
  <rect x="416" y="236" width="40" height="140" rx="4" fill="#94D2FF" />
  <rect x="416" y="236" width="40" height="140" rx="4" fill="#5CEFFF" opacity="0.5" />
  
  <!-- Linija virš stulpelių -->
  <path d="M116 256 C116 256, 196 216, 276 296, 356 176, 436 236" stroke="#9B6DFF" stroke-width="8" stroke-linecap="round" />
  <path d="M116 256 C116 256, 196 216, 276 296, 356 176, 436 236" stroke="#B026FF" stroke-width="4" stroke-linecap="round" opacity="0.7" />
  
  <!-- Taškai linijos viršūnėse -->
  <circle cx="116" cy="256" r="12" fill="#7C3AED" />
  <circle cx="116" cy="256" r="12" fill="#B026FF" opacity="0.5" />
  
  <circle cx="196" cy="216" r="12" fill="#7C3AED" />
  <circle cx="196" cy="216" r="12" fill="#B026FF" opacity="0.5" />
  
  <circle cx="276" cy="296" r="12" fill="#7C3AED" />
  <circle cx="276" cy="296" r="12" fill="#B026FF" opacity="0.5" />
  
  <circle cx="356" cy="176" r="12" fill="#7C3AED" />
  <circle cx="356" cy="176" r="12" fill="#B026FF" opacity="0.5" />
  
  <circle cx="436" cy="236" r="12" fill="#7C3AED" />
  <circle cx="436" cy="236" r="12" fill="#B026FF" opacity="0.5" />
  
  <!-- Švytėjimo efektas -->
  <filter id="glow" x="-50%" y="-50%" width="200%" height="200%">
    <feGaussianBlur stdDeviation="10" result="blur" />
    <feComposite in="SourceGraphic" in2="blur" operator="over" />
  </filter>
  
  <g filter="url(#glow)">
    <path d="M116 256 C116 256, 196 216, 276 296, 356 176, 436 236" stroke="#B026FF" stroke-width="2" stroke-linecap="round" />
    <circle cx="116" cy="256" r="6" fill="#B026FF" />
    <circle cx="196" cy="216" r="6" fill="#B026FF" />
    <circle cx="276" cy="296" r="6" fill="#B026FF" />
    <circle cx="356" cy="176" r="6" fill="#B026FF" />
    <circle cx="436" cy="236" r="6" fill="#B026FF" />
  </g>
</svg>